<svg width="400" height="400" viewBox="0 0 400 400" fill="none" xmlns="http://www.w3.org/2000/svg">
<ellipse cx="199" cy="196.5" rx="186" ry="118.5" fill="url(#paint0_linear_249_75)"/>
<path fill-rule="evenodd" clip-rule="evenodd" d="M145.929 41.845C141.288 55.9005 131.867 65.5183 121 65.5183C118.87 65.5183 116.796 65.1489 114.802 64.449C108.118 77.5228 94.1495 86.5183 78 86.5183C65.1011 86.5183 53.5934 80.7796 46.0776 71.8078C17.3023 106.451 0 150.964 0 199.518C0 309.975 89.5431 399.518 200 399.518C310.457 399.518 400 309.975 400 199.518C400 93.7644 317.92 7.18134 213.99 0C213.467 25.7803 192.405 46.5183 166.5 46.5183C159.131 46.5183 152.153 44.8401 145.929 41.845ZM41.624 215.654L18.2 205.286V197.846L41.624 187.478V195.878L27.8 201.542L41.624 207.254V215.654ZM43.0281 215.654V207.254L56.8521 201.542L43.0281 195.878V187.478L66.4521 197.846V205.286L43.0281 215.654ZM68.8163 216.518V185.606H77.6003L85.2802 201.302L92.9123 185.606H101.648V216.518H92.6243V201.062L87.6803 211.238H82.8322L77.8402 201.062V216.518H68.8163ZM119.82 216.998C114.7 216.998 110.78 215.75 108.06 213.254C105.372 210.758 104.028 206.726 104.028 201.158C104.028 197.318 104.636 194.23 105.852 191.894C107.068 189.526 108.844 187.814 111.18 186.758C113.548 185.67 116.428 185.126 119.82 185.126C123.212 185.126 126.076 185.67 128.412 186.758C130.78 187.814 132.572 189.526 133.788 191.894C135.004 194.23 135.612 197.318 135.612 201.158C135.612 206.726 134.252 210.758 131.532 213.254C128.812 215.75 124.908 216.998 119.82 216.998ZM119.82 209.318C122.124 209.318 123.788 208.678 124.812 207.398C125.868 206.086 126.396 204.006 126.396 201.158C126.396 198.118 125.868 195.974 124.812 194.726C123.788 193.446 122.124 192.806 119.82 192.806C117.516 192.806 115.836 193.446 114.78 194.726C113.756 195.974 113.244 198.118 113.244 201.158C113.244 204.006 113.756 206.086 114.78 207.398C115.836 208.678 117.516 209.318 119.82 209.318ZM137.973 185.606H146.997V197.126H157.652V185.606H166.677V216.518H157.652V204.998H146.997V216.518H137.973V185.606ZM180.915 185.606H190.467L202.323 216.518H192.915L190.323 209.942H181.011L178.467 216.518H169.059L180.915 185.606ZM185.667 194.39L182.211 203.462H189.123L185.667 194.39ZM204.691 185.606H213.475L221.155 201.302L228.787 185.606H237.523V216.518H228.499V201.062L223.555 211.238H218.707L213.715 201.062V216.518H204.691V185.606ZM251.759 185.606H261.311L273.167 216.518H263.759L261.167 209.942H251.855L249.311 216.518H239.903L251.759 185.606ZM259.967 203.462L256.511 194.39L253.055 203.462H259.967ZM275.535 185.606H289.359C292.527 185.606 295.231 186.134 297.471 187.19C299.711 188.214 301.423 189.878 302.607 192.182C303.791 194.454 304.383 197.478 304.383 201.254C304.383 206.566 303.087 210.438 300.495 212.87C297.903 215.302 294.191 216.518 289.359 216.518H275.535V185.606ZM284.559 209.606H288.207C289.711 209.606 290.975 209.398 291.999 208.982C293.023 208.534 293.807 207.718 294.351 206.534C294.895 205.318 295.167 203.558 295.167 201.254C295.167 198.95 294.911 197.174 294.399 195.926C293.919 194.646 293.167 193.766 292.143 193.286C291.119 192.774 289.807 192.518 288.207 192.518H284.559V209.606ZM329.202 215.654L305.778 205.286V197.846L329.202 187.478V195.878L315.378 201.542L329.202 207.254V215.654ZM330.606 216.518L341.838 184.742H351.102L339.87 216.518H330.606ZM352.481 215.654V207.254L366.305 201.542L352.481 195.878V187.478L375.905 197.846V205.286L352.481 215.654Z" fill="url(#paint1_linear_249_75)"/>
<circle cx="113" cy="302" r="8" fill="#9F4200"/>
<circle cx="230" cy="274" r="8" fill="#9F4200"/>
<circle cx="159" cy="126" r="8" fill="#9F4200"/>
<ellipse cx="175.5" cy="305" rx="8.5" ry="10" fill="#9F4200"/>
<ellipse cx="292.5" cy="277" rx="8.5" ry="10" fill="#9F4200"/>
<ellipse cx="221.5" cy="129" rx="8.5" ry="10" fill="#9F4200"/>
<defs>
<linearGradient id="paint0_linear_249_75" x1="343.5" y1="157.5" x2="-172.5" y2="227" gradientUnits="userSpaceOnUse">
<stop stop-color="#7D3400"/>
<stop offset="1" stop-color="#A44400"/>
</linearGradient>
<linearGradient id="paint1_linear_249_75" x1="200" y1="0" x2="200" y2="399.518" gradientUnits="userSpaceOnUse">
<stop stop-color="#F8781C"/>
<stop offset="1" stop-color="#F4802D"/>
</linearGradient>
</defs>
</svg>
